<svg xmlns="http://www.w3.org/2000/svg" viewBox="0 0 32 32" width="32" height="32">
  <defs>
    <linearGradient id="bg" x1="0%" y1="0%" x2="100%" y2="100%">
      <stop offset="0%" style="stop-color:#1e40af;stop-opacity:1" />
      <stop offset="100%" style="stop-color:#3b82f6;stop-opacity:1" />
    </linearGradient>
  </defs>
  
  <!-- Background circle -->
  <circle cx="16" cy="16" r="15" fill="url(#bg)" stroke="#1e3a8a" stroke-width="2"/>
  
  <!-- Christmas tree -->
  <path d="M16 6 L12 12 L20 12 Z" fill="#22c55e"/>
  <path d="M16 10 L10 16 L22 16 Z" fill="#16a34a"/>
  <path d="M16 14 L8 20 L24 20 Z" fill="#15803d"/>
  
  <!-- Tree trunk -->
  <rect x="14" y="20" width="4" height="4" fill="#8b4513"/>
  
  <!-- Star on top -->
  <path d="M16 4 L17 7 L20 7 L17.5 9 L18.5 12 L16 10 L13.5 12 L14.5 9 L12 7 L15 7 Z" fill="#fbbf24"/>
  
  <!-- Snowflakes -->
  <circle cx="8" cy="8" r="1" fill="white" opacity="0.8"/>
  <circle cx="24" cy="6" r="1" fill="white" opacity="0.8"/>
  <circle cx="6" cy="24" r="1" fill="white" opacity="0.8"/>
  <circle cx="26" cy="22" r="1" fill="white" opacity="0.8"/>
</svg>
